<svg xmlns="http://www.w3.org/2000/svg" xmlns:xlink="http://www.w3.org/1999/xlink" viewBox="0,0,256,256" width="64px" height="64px" fill-rule="nonzero"><defs><linearGradient x1="32.5" y1="-0.498" x2="32.5" y2="65.889" gradientUnits="userSpaceOnUse" id="color-1"><stop offset="0" stop-color="#000000"></stop><stop offset="1" stop-color="#e6abff"></stop></linearGradient><linearGradient x1="32.5" y1="-1.872" x2="32.5" y2="68.197" gradientUnits="userSpaceOnUse" id="color-2"><stop offset="0" stop-color="#1a6dff"></stop><stop offset="1" stop-color="#c822ff"></stop></linearGradient></defs><g fill="none" fill-rule="nonzero" stroke="none" stroke-width="1" stroke-linecap="butt" stroke-linejoin="miter" stroke-miterlimit="10" stroke-dasharray="" stroke-dashoffset="0" font-family="none" font-weight="none" font-size="none" text-anchor="none" style="mix-blend-mode: normal"><g transform="scale(4,4)"><path d="M55,47h-15v-3c0,0 15,-2 16,-19c0.972,-14.584 -11.29,-19.714 -23,-19.987v-0.013c-0.166,0 -0.333,0.005 -0.5,0.007c-0.167,-0.002 -0.334,-0.007 -0.5,-0.007v0.013c-11.71,0.273 -23.972,5.403 -23,19.987c1,17 16,19 16,19v3h-15l-4,-5l2,12h22v-13c0,0 -12,-4 -12,-16c0,-11.794 4.841,-15.85 14.5,-15.987c9.659,0.137 14.5,4.193 14.5,15.987c0,12 -12,16 -12,16v13h22l2,-12z" fill="url(#color-1)"></path><path d="M57,55h-22c-0.553,0 -1,-0.447 -1,-1v-13c0,-0.43 0.275,-0.812 0.683,-0.948c0.462,-0.156 11.317,-3.935 11.317,-15.052c0,-10.648 -3.789,-14.85 -13.514,-14.986c-9.697,0.136 -13.486,4.338 -13.486,14.986c0,11.117 10.855,14.896 11.317,15.052c0.408,0.136 0.683,0.518 0.683,0.948v13c0,0.553 -0.447,1 -1,1h-22c-0.489,0 -0.906,-0.354 -0.986,-0.836l-2,-12c-0.075,-0.448 0.163,-0.892 0.579,-1.077c0.412,-0.185 0.902,-0.068 1.188,0.288l3.699,4.625h13.799l0.407,-1.223c-4.007,-0.865 -16.686,-4.787 -16.686,-19.777c0,-14.992 12.272,-20.664 23.817,-20.983c0.06,-0.011 0.12,-0.017 0.183,-0.017l0.512,0.007l0.488,-0.007c0.063,0 0.125,0.006 0.186,0.018c11.543,0.318 23.814,5.991 23.814,20.982c0,14.99 -12.679,18.912 -16.687,19.777l0.408,1.223h13.799l3.699,-4.625c0.286,-0.356 0.774,-0.473 1.188,-0.288c0.416,0.186 0.654,0.629 0.579,1.077l-2,12c-0.08,0.482 -0.497,0.836 -0.986,0.836zM36,53h20.153l1.229,-7.377l-1.602,2.002c-0.189,0.237 -0.476,0.375 -0.78,0.375h-15c-0.431,0 -0.813,-0.275 -0.948,-0.684l-1,-3c-0.096,-0.285 -0.057,-0.599 0.104,-0.853c0.161,-0.254 0.429,-0.422 0.728,-0.457c0.658,-0.077 16.116,-2.09 16.116,-18.006c0,-4.334 -1.588,-18.511 -22.023,-18.987c-0.042,-0.001 -0.084,-0.005 -0.124,-0.011l-0.341,0.005l-0.365,-0.005c-0.04,0.006 -0.081,0.01 -0.123,0.011c-20.436,0.476 -22.024,14.653 -22.024,18.987c0,15.916 15.458,17.929 16.116,18.007c0.299,0.035 0.566,0.203 0.728,0.457c0.162,0.254 0.2,0.567 0.104,0.853l-1,3c-0.136,0.408 -0.517,0.683 -0.948,0.683h-15c-0.304,0 -0.591,-0.138 -0.781,-0.375l-1.602,-2.002l1.23,7.377h20.153v-11.318c-2.638,-1.112 -12,-5.824 -12,-16.682c0,-11.754 4.631,-16.834 15.486,-16.986c10.883,0.152 15.514,5.232 15.514,16.986c0,10.858 -9.362,15.57 -12,16.682z" fill="url(#color-2)"></path></g></g></svg>